# Blender v2.90.1 OBJ File: 'rubik_checker.blend'
# www.blender.org
o Cylinder
v 0.110650 -3.930910 -0.730418
v 2.488732 1.630317 -3.467866
v 0.564498 -3.896072 -0.265377
v 2.942580 1.665155 -3.002825
v 0.930826 -3.792898 0.262463
v 3.308908 1.768329 -2.474985
v 1.195556 -3.625352 0.832815
v 3.573638 1.935875 -1.904633
v 1.348515 -3.399874 1.423762
v 3.726597 2.161353 -1.313686
v 1.383825 -3.125127 2.012594
v 3.761907 2.436100 -0.724854
v 1.300128 -2.811671 2.576682
v 3.678210 2.749556 -0.160766
v 1.100642 -2.471552 3.094349
v 3.478724 3.089675 0.356901
v 0.793032 -2.117839 3.545702
v 3.171114 3.443388 0.808254
v 0.389120 -1.764127 3.913394
v 2.767202 3.797100 1.175946
v -0.095573 -1.424008 4.183296
v 2.282509 4.137219 1.445848
v -0.642419 -1.110551 4.345036
v 1.735663 4.450675 1.607588
v -1.230405 -0.835805 4.392397
v 1.147677 4.725422 1.654950
v -1.836933 -0.610326 4.323561
v 0.541149 4.950901 1.586113
v -2.438696 -0.442780 4.141172
v -0.060614 5.118446 1.403724
v -3.012567 -0.339606 3.852239
v -0.634485 5.221621 1.114791
v -3.536494 -0.304769 3.467865
v -1.158412 5.256458 0.730418
v -3.990342 -0.339607 3.002823
v -1.612260 5.221620 0.265375
v -4.356670 -0.442781 2.474984
v -1.978588 5.118446 -0.262464
v -4.621400 -0.610327 1.904631
v -2.243318 4.950900 -0.832817
v -4.774359 -0.835806 1.313684
v -2.396276 4.725421 -1.423764
v -4.809668 -1.110552 0.724852
v -2.431586 4.450675 -2.012596
v -4.725971 -1.424008 0.160763
v -2.347889 4.137218 -2.576684
v -4.526484 -1.764128 -0.356904
v -2.148402 3.797099 -3.094352
v -4.218874 -2.117841 -0.808256
v -1.840791 3.443386 -3.545704
v -3.814960 -2.471554 -1.175948
v -1.436878 3.089673 -3.913396
v -3.330267 -2.811673 -1.445850
v -0.952185 2.749554 -4.183298
v -2.783420 -3.125129 -1.607589
v -0.405338 2.436098 -4.345037
v -2.195435 -3.399875 -1.654950
v 0.182648 2.161352 -4.392397
v -1.588906 -3.625354 -1.586112
v 0.789176 1.935873 -4.323560
v -0.987143 -3.792899 -1.403722
v 1.390939 1.768328 -4.141170
v -0.413272 -3.896072 -1.114788
v 1.964810 1.665154 -3.852236
vt 1.000000 1.000000
vt 0.968750 0.500000
vt 1.000000 0.500000
vt 0.968750 1.000000
vt 0.937500 0.500000
vt 0.937500 1.000000
vt 0.906250 0.500000
vt 0.906250 1.000000
vt 0.875000 0.500000
vt 0.875000 1.000000
vt 0.843750 0.500000
vt 0.843750 1.000000
vt 0.812500 0.500000
vt 0.812500 1.000000
vt 0.781250 0.500000
vt 0.781250 1.000000
vt 0.750000 0.500000
vt 0.750000 1.000000
vt 0.718750 0.500000
vt 0.718750 1.000000
vt 0.687500 0.500000
vt 0.687500 1.000000
vt 0.656250 0.500000
vt 0.656250 1.000000
vt 0.625000 0.500000
vt 0.625000 1.000000
vt 0.593750 0.500000
vt 0.593750 1.000000
vt 0.562500 0.500000
vt 0.562500 1.000000
vt 0.531250 0.500000
vt 0.531250 1.000000
vt 0.500000 0.500000
vt 0.500000 1.000000
vt 0.468750 0.500000
vt 0.468750 1.000000
vt 0.437500 0.500000
vt 0.437500 1.000000
vt 0.406250 0.500000
vt 0.406250 1.000000
vt 0.375000 0.500000
vt 0.375000 1.000000
vt 0.343750 0.500000
vt 0.343750 1.000000
vt 0.312500 0.500000
vt 0.312500 1.000000
vt 0.281250 0.500000
vt 0.281250 1.000000
vt 0.250000 0.500000
vt 0.250000 1.000000
vt 0.218750 0.500000
vt 0.218750 1.000000
vt 0.187500 0.500000
vt 0.187500 1.000000
vt 0.156250 0.500000
vt 0.156250 1.000000
vt 0.125000 0.500000
vt 0.125000 1.000000
vt 0.093750 0.500000
vt 0.093750 1.000000
vt 0.062500 0.500000
vt 0.028269 0.341844
vt 0.158156 0.028269
vt 0.471731 0.158156
vt 0.062500 1.000000
vt 0.031250 0.500000
vt 0.031250 1.000000
vt 0.000000 0.500000
vt 0.985388 0.296822
vt 0.796822 0.014612
vt 0.514611 0.203179
vt 0.341844 0.471731
vt 0.296822 0.485388
vt 0.250000 0.490000
vt 0.203179 0.485389
vt 0.158156 0.471731
vt 0.116663 0.449553
vt 0.080295 0.419706
vt 0.050447 0.383337
vt 0.014612 0.296822
vt 0.010000 0.250000
vt 0.014611 0.203179
vt 0.028269 0.158156
vt 0.050447 0.116663
vt 0.080294 0.080294
vt 0.116663 0.050447
vt 0.203178 0.014612
vt 0.250000 0.010000
vt 0.296822 0.014612
vt 0.341844 0.028269
vt 0.383337 0.050447
vt 0.419706 0.080294
vt 0.449553 0.116663
vt 0.485388 0.203178
vt 0.490000 0.250000
vt 0.485388 0.296822
vt 0.471731 0.341844
vt 0.449553 0.383337
vt 0.419706 0.419706
vt 0.383337 0.449553
vt 0.000000 1.000000
vt 0.703179 0.485389
vt 0.750000 0.490000
vt 0.796822 0.485388
vt 0.841844 0.471731
vt 0.883337 0.449553
vt 0.919706 0.419706
vt 0.949553 0.383337
vt 0.971731 0.341844
vt 0.990000 0.250000
vt 0.985388 0.203178
vt 0.971731 0.158156
vt 0.949553 0.116663
vt 0.919706 0.080294
vt 0.883337 0.050447
vt 0.841844 0.028269
vt 0.750000 0.010000
vt 0.703178 0.014612
vt 0.658156 0.028269
vt 0.616663 0.050447
vt 0.580294 0.080294
vt 0.550447 0.116663
vt 0.528269 0.158156
vt 0.510000 0.250000
vt 0.514612 0.296822
vt 0.528269 0.341844
vt 0.550447 0.383337
vt 0.580295 0.419706
vt 0.616663 0.449553
vt 0.658156 0.471731
vn 0.6207 -0.5436 -0.5650
vn 0.7448 -0.5227 -0.4148
vn 0.8404 -0.4817 -0.2485
vn 0.9036 -0.4222 -0.0728
vn 0.9321 -0.3465 0.1058
vn 0.9247 -0.2575 0.2803
vn 0.8819 -0.1586 0.4440
vn 0.8051 -0.0535 0.5907
vn 0.6974 0.0535 0.7146
vn 0.5629 0.1586 0.8111
vn 0.4068 0.2575 0.8765
vn 0.2351 0.3465 0.9081
vn 0.0543 0.4222 0.9049
vn -0.1286 0.4817 0.8668
vn -0.3066 0.5227 0.7955
vn -0.4727 0.5436 0.6936
vn -0.6207 0.5436 0.5650
vn -0.7448 0.5227 0.4148
vn -0.8404 0.4817 0.2485
vn -0.9036 0.4222 0.0728
vn -0.9321 0.3465 -0.1058
vn -0.9247 0.2575 -0.2803
vn -0.8819 0.1586 -0.4440
vn -0.8051 0.0535 -0.5907
vn -0.6974 -0.0535 -0.7146
vn -0.5629 -0.1586 -0.8111
vn -0.4068 -0.2575 -0.8765
vn -0.2351 -0.3465 -0.9081
vn -0.0543 -0.4222 -0.9049
vn 0.1286 -0.4817 -0.8668
vn 0.3582 0.8377 -0.4123
vn 0.3066 -0.5227 -0.7955
vn 0.4727 -0.5436 -0.6936
vn -0.3582 -0.8377 0.4123
vn -0.8819 0.1585 -0.4440
s off
f 2/1/1 3/2/1 1/3/1
f 4/4/2 5/5/2 3/2/2
f 6/6/3 7/7/3 5/5/3
f 8/8/4 9/9/4 7/7/4
f 10/10/5 11/11/5 9/9/5
f 12/12/6 13/13/6 11/11/6
f 14/14/7 15/15/7 13/13/7
f 16/16/8 17/17/8 15/15/8
f 18/18/9 19/19/9 17/17/9
f 20/20/10 21/21/10 19/19/10
f 22/22/11 23/23/11 21/21/11
f 24/24/12 25/25/12 23/23/12
f 26/26/13 27/27/13 25/25/13
f 28/28/14 29/29/14 27/27/14
f 30/30/15 31/31/15 29/29/15
f 32/32/16 33/33/16 31/31/16
f 34/34/17 35/35/17 33/33/17
f 36/36/18 37/37/18 35/35/18
f 38/38/19 39/39/19 37/37/19
f 40/40/20 41/41/20 39/39/20
f 42/42/21 43/43/21 41/41/21
f 44/44/22 45/45/22 43/43/22
f 46/46/23 47/47/23 45/45/23
f 48/48/24 49/49/24 47/47/24
f 50/50/25 51/51/25 49/49/25
f 52/52/26 53/53/26 51/51/26
f 54/54/27 55/55/27 53/53/27
f 56/56/28 57/57/28 55/55/28
f 58/58/29 59/59/29 57/57/29
f 60/60/30 61/61/30 59/59/30
f 54/62/31 38/63/31 22/64/31
f 62/65/32 63/66/32 61/61/32
f 64/67/33 1/68/33 63/66/33
f 15/69/34 31/70/34 47/71/34
f 2/1/1 4/4/1 3/2/1
f 4/4/2 6/6/2 5/5/2
f 6/6/3 8/8/3 7/7/3
f 8/8/4 10/10/4 9/9/4
f 10/10/5 12/12/5 11/11/5
f 12/12/6 14/14/6 13/13/6
f 14/14/7 16/16/7 15/15/7
f 16/16/8 18/18/8 17/17/8
f 18/18/9 20/20/9 19/19/9
f 20/20/10 22/22/10 21/21/10
f 22/22/11 24/24/11 23/23/11
f 24/24/12 26/26/12 25/25/12
f 26/26/13 28/28/13 27/27/13
f 28/28/14 30/30/14 29/29/14
f 30/30/15 32/32/15 31/31/15
f 32/32/16 34/34/16 33/33/16
f 34/34/17 36/36/17 35/35/17
f 36/36/18 38/38/18 37/37/18
f 38/38/19 40/40/19 39/39/19
f 40/40/20 42/42/20 41/41/20
f 42/42/21 44/44/21 43/43/21
f 44/44/22 46/46/22 45/45/22
f 46/46/35 48/48/35 47/47/35
f 48/48/24 50/50/24 49/49/24
f 50/50/25 52/52/25 51/51/25
f 52/52/26 54/54/26 53/53/26
f 54/54/27 56/56/27 55/55/27
f 56/56/28 58/58/28 57/57/28
f 58/58/29 60/60/29 59/59/29
f 60/60/30 62/65/30 61/61/30
f 6/72/31 4/73/31 2/74/31
f 2/74/31 64/75/31 6/72/31
f 64/75/31 62/76/31 6/72/31
f 62/76/31 60/77/31 58/78/31
f 58/78/31 56/79/31 54/62/31
f 54/62/31 52/80/31 50/81/31
f 50/81/31 48/82/31 54/62/31
f 48/82/31 46/83/31 54/62/31
f 46/83/31 44/84/31 38/63/31
f 44/84/31 42/85/31 38/63/31
f 42/85/31 40/86/31 38/63/31
f 38/63/31 36/87/31 34/88/31
f 34/88/31 32/89/31 30/90/31
f 30/90/31 28/91/31 26/92/31
f 26/92/31 24/93/31 22/64/31
f 22/64/31 20/94/31 18/95/31
f 18/95/31 16/96/31 22/64/31
f 16/96/31 14/97/31 22/64/31
f 14/97/31 12/98/31 10/99/31
f 10/99/31 8/100/31 6/72/31
f 62/76/31 58/78/31 6/72/31
f 58/78/31 54/62/31 6/72/31
f 38/63/31 34/88/31 22/64/31
f 34/88/31 30/90/31 22/64/31
f 30/90/31 26/92/31 22/64/31
f 14/97/31 10/99/31 22/64/31
f 10/99/31 6/72/31 22/64/31
f 54/62/31 46/83/31 38/63/31
f 6/72/31 54/62/31 22/64/31
f 62/65/32 64/67/32 63/66/32
f 64/67/33 2/101/33 1/68/33
f 63/102/34 1/103/34 3/104/34
f 3/104/34 5/105/34 7/106/34
f 7/106/34 9/107/34 11/108/34
f 11/108/34 13/109/34 7/106/34
f 13/109/34 15/69/34 7/106/34
f 15/69/34 17/110/34 19/111/34
f 19/111/34 21/112/34 15/69/34
f 21/112/34 23/113/34 15/69/34
f 23/113/34 25/114/34 31/70/34
f 25/114/34 27/115/34 31/70/34
f 27/115/34 29/116/34 31/70/34
f 31/70/34 33/117/34 35/118/34
f 35/118/34 37/119/34 39/120/34
f 39/120/34 41/121/34 43/122/34
f 43/122/34 45/123/34 47/71/34
f 47/71/34 49/124/34 51/125/34
f 51/125/34 53/126/34 55/127/34
f 55/127/34 57/128/34 63/102/34
f 57/128/34 59/129/34 63/102/34
f 59/129/34 61/130/34 63/102/34
f 63/102/34 3/104/34 7/106/34
f 31/70/34 35/118/34 47/71/34
f 35/118/34 39/120/34 47/71/34
f 39/120/34 43/122/34 47/71/34
f 47/71/34 51/125/34 63/102/34
f 51/125/34 55/127/34 63/102/34
f 63/102/34 7/106/34 15/69/34
f 15/69/34 23/113/34 31/70/34
f 63/102/34 15/69/34 47/71/34
