# Blender v2.90.1 OBJ File: 'rubik_checker.blend'
# www.blender.org
o Pyramid
v 9.293663 -2.868203 3.826455
v -3.511050 -2.142854 9.563395
v -9.293663 -3.749029 -3.140182
v 3.511051 -4.474379 -8.877123
v 9.293663 -1.882573 3.701837
v -3.511050 -1.157224 9.438777
v -9.293663 -2.763399 -3.264800
v 3.511051 -3.488749 -9.001740
v 8.364297 -1.926615 3.353505
v -3.159944 -1.273800 8.516750
v -8.364297 -2.719358 -2.916468
v 3.159946 -3.372172 -8.079716
v 8.364297 -0.940984 3.228887
v -3.159944 -0.288170 8.392133
v -8.364297 -1.733728 -3.041086
v 3.159946 -2.386542 -8.204333
v 7.434930 -0.985026 2.880555
v -2.808840 -0.404746 7.470108
v -7.434931 -1.689687 -2.692755
v 2.808841 -2.269966 -7.282308
v 7.434930 0.000605 2.755937
v -2.808840 0.580884 7.345490
v -7.434931 -0.704056 -2.817373
v 2.808841 -1.284336 -7.406926
v 6.505564 -0.043437 2.407605
v -2.457735 0.464308 6.423463
v -6.505564 -0.660015 -2.469041
v 2.457736 -1.167759 -6.484900
v 6.505564 0.942193 2.282987
v -2.457735 1.449938 6.298845
v -6.505564 0.325615 -2.593659
v 2.457736 -0.182129 -6.609518
v 5.576198 0.898152 1.934655
v -2.106630 1.333362 5.376819
v -5.576198 0.369656 -2.245327
v 2.106631 -0.065553 -5.687492
v 5.576198 1.883782 1.810037
v -2.106630 2.318992 5.252201
v -5.576198 1.355286 -2.369945
v 2.106631 0.920078 -5.812110
v 4.646832 1.839741 1.461705
v -1.755525 2.202415 4.330175
v -4.646832 1.399328 -2.021613
v 1.755525 1.036653 -4.890084
v 4.646832 2.825372 1.337087
v -1.755525 3.188046 4.205557
v -4.646832 2.384959 -2.146231
v 1.755525 2.022284 -5.014702
v 3.717465 2.781330 0.988755
v -1.404420 3.071470 3.283531
v -3.717465 2.429000 -1.797899
v 1.404420 2.138860 -4.092676
v 3.717465 3.766960 0.864137
v -1.404420 4.057099 3.158913
v -3.717465 3.414630 -1.922518
v 1.404420 3.124490 -4.217294
v 2.788099 3.722918 0.515805
v -1.053315 3.940523 2.236887
v -2.788099 3.458670 -1.574186
v 1.053315 3.241066 -3.295268
v 2.788099 4.708549 0.391187
v -1.053315 4.926154 2.112269
v -2.788099 4.444301 -1.698804
v 1.053315 4.226697 -3.419886
v 1.858732 4.664508 0.042855
v -0.702210 4.809578 1.190243
v -1.858733 4.488342 -1.350472
v 0.702210 4.343273 -2.497860
v 1.858732 5.650137 -0.081763
v -0.702210 5.795208 1.065625
v -1.858733 5.473972 -1.475090
v 0.702210 5.328903 -2.622478
v 0.929366 5.606096 -0.430095
v -0.351105 5.678632 0.143599
v -0.929366 5.518013 -1.126758
v 0.351105 5.445479 -1.700452
v 0.929366 6.591726 -0.554713
v -0.351105 6.664262 0.018981
v -0.929366 6.503643 -1.251376
v 0.351105 6.431109 -1.825070
vt 0.376853 0.370370
vt 0.000000 0.000000
vt 0.376853 0.000000
vt 0.357456 0.814815
vt 0.319771 0.851852
vt 0.319771 0.814815
vt 0.866762 0.703704
vt 0.893410 0.333333
vt 0.893410 0.703704
vt 0.893410 0.703704
vt 0.920057 0.333333
vt 0.920057 0.703704
vt 0.946705 0.703704
vt 0.973352 0.333333
vt 0.973352 0.703704
vt 0.920057 0.703704
vt 0.946705 0.333333
vt 0.946705 0.703704
vt 0.920057 0.333333
vt 0.946705 0.000000
vt 0.946705 0.333333
vt 0.973352 0.333333
vt 0.946705 0.000000
vt 0.973352 0.000000
vt 0.866762 0.333333
vt 0.893410 0.000000
vt 0.893410 0.333333
vt 0.893410 0.333333
vt 0.920057 0.000000
vt 0.920057 0.333333
vt 0.973352 0.296296
vt 1.000000 0.000000
vt 1.000000 0.296296
vt 0.973352 0.925926
vt 1.000000 0.629630
vt 1.000000 0.925926
vt 0.866762 1.000000
vt 0.893410 0.703704
vt 0.893410 1.000000
vt 0.973352 0.629630
vt 1.000000 0.333333
vt 1.000000 0.629630
vt 0.893410 0.962963
vt 0.920057 0.703704
vt 0.920057 0.962963
vt 0.000000 1.000000
vt 0.026648 0.740741
vt 0.026648 1.000000
vt 0.026648 1.000000
vt 0.053295 0.740741
vt 0.053295 1.000000
vt 0.920057 0.962963
vt 0.946705 0.703704
vt 0.946705 0.962963
vt 0.133238 0.740741
vt 0.106590 0.962963
vt 0.106590 0.740741
vt 0.053295 0.962963
vt 0.079943 0.740741
vt 0.079943 0.962963
vt 0.106590 0.740741
vt 0.079943 0.962963
vt 0.973352 0.703704
vt 0.946705 0.925926
vt 0.946705 0.703704
vt 0.791391 0.333333
vt 0.818039 0.148148
vt 0.818039 0.333333
vt 0.844687 0.148148
vt 0.818039 0.333333
vt 0.159885 0.925926
vt 0.186533 0.740741
vt 0.186533 0.925926
vt 0.159885 0.740741
vt 0.133238 0.925926
vt 0.133238 0.740741
vt 0.213181 0.888889
vt 0.239828 0.740741
vt 0.239828 0.888889
vt 0.266476 0.888889
vt 0.293123 0.740741
vt 0.293123 0.888889
vt 0.186533 0.888889
vt 0.213180 0.740741
vt 0.213181 0.888889
vt 0.239828 0.888889
vt 0.266476 0.740741
vt 0.266476 0.888889
vt 0.742668 0.333333
vt 0.769316 0.222222
vt 0.769316 0.333333
vt 0.791391 0.518519
vt 0.818039 0.629630
vt 0.791391 0.629630
vt 0.844687 0.518519
vt 0.844687 0.629630
vt 0.742668 0.222222
vt 0.716021 0.333333
vt 0.716021 0.222222
vt 0.319771 0.814815
vt 0.346418 0.740741
vt 0.346418 0.814815
vt 0.293123 0.740741
vt 0.319771 0.814815
vt 0.293123 0.814815
vt 0.346418 0.814815
vt 0.373066 0.740741
vt 0.373066 0.814815
vt 0.319771 0.814815
vt 0.293123 0.888889
vt 0.293123 0.814815
vt 0.640650 0.888889
vt 0.667298 0.851852
vt 0.667298 0.888889
vt 0.319771 0.851852
vt 0.346418 0.888889
vt 0.319771 0.888889
vt 0.373066 0.851852
vt 0.373066 0.888889
vt 0.693945 0.888889
vt 0.667298 0.851852
vt 0.693945 0.851852
vt 0.018843 0.388889
vt 0.000000 0.740741
vt 0.000000 0.370370
vt 0.358010 0.722222
vt 0.376853 0.740741
vt 0.376853 0.370370
vt 0.358010 0.388889
vt 0.376853 0.000000
vt 0.395696 0.314815
vt 0.376853 0.333333
vt 0.697178 0.314815
vt 0.716021 0.333333
vt 0.716021 0.000000
vt 0.697178 0.018519
vt 0.395696 0.351852
vt 0.376853 0.629630
vt 0.376853 0.333333
vt 0.659493 0.611111
vt 0.678335 0.629630
vt 0.678336 0.333333
vt 0.659493 0.351852
vt 0.640650 0.629630
vt 0.395696 0.648148
vt 0.376853 0.629630
vt 0.376853 0.888889
vt 0.395696 0.870370
vt 0.640650 0.888889
vt 0.621808 0.648148
vt 0.847919 0.833333
vt 0.866762 0.629630
vt 0.866762 0.851852
vt 0.847919 0.648148
vt 0.640650 0.629630
vt 0.659493 0.648148
vt 0.640650 0.851852
vt 0.697178 0.351852
vt 0.678336 0.518519
vt 0.678336 0.333333
vt 0.847919 0.500000
vt 0.866762 0.518519
vt 0.847919 0.351852
vt 0.866762 0.333333
vt 0.734863 0.018519
vt 0.716021 0.148148
vt 0.716021 0.000000
vt 0.847919 0.129630
vt 0.866762 0.148148
vt 0.866762 0.000000
vt 0.847919 0.018519
vt 0.678336 0.629630
vt 0.772549 0.611111
vt 0.791391 0.629630
vt 0.791391 0.518519
vt 0.772549 0.537037
vt 0.678336 0.518519
vt 0.697178 0.611111
vt 0.716021 0.148148
vt 0.734863 0.203704
vt 0.716021 0.222222
vt 0.791391 0.222222
vt 0.772549 0.203704
vt 0.791391 0.148148
vt 0.772549 0.166667
vt 0.000000 0.370370
vt 0.357456 0.851852
vt 0.866762 0.333333
vt 0.893410 0.333333
vt 0.946705 0.333333
vt 0.920057 0.333333
vt 0.920057 0.000000
vt 0.946705 0.333333
vt 0.866762 0.000000
vt 0.893410 0.000000
vt 0.973352 0.000000
vt 0.973352 0.629630
vt 0.866762 0.703704
vt 0.973352 0.333333
vt 0.893410 0.703704
vt 0.000000 0.740741
vt 0.026648 0.740741
vt 0.920057 0.703704
vt 0.133238 0.962963
vt 0.053295 0.740741
vt 0.106590 0.962963
vt 0.973352 0.925926
vt 0.791391 0.148148
vt 0.844687 0.333333
vt 0.159885 0.925926
vt 0.213181 0.740741
vt 0.266476 0.740741
vt 0.186533 0.740741
vt 0.239828 0.740741
vt 0.742668 0.222222
vt 0.818039 0.518519
vt 0.818039 0.518519
vt 0.319771 0.740741
vt 0.346418 0.740741
vt 0.319771 0.888889
vt 0.640650 0.851852
vt 0.346418 0.851852
vt 0.346418 0.851852
vt 0.667298 0.888889
vt 0.018843 0.722222
vt 0.395696 0.018519
vt 0.395696 0.611111
vt 0.621808 0.870370
vt 0.659493 0.833333
vt 0.697178 0.500000
vt 0.734863 0.129630
vt 0.697178 0.537037
vt 0.734863 0.166667
vn 0.0000 -0.9921 0.1254
vn -0.0000 0.9921 -0.1254
vn 0.4116 0.1143 0.9042
vn -0.9114 0.0516 0.4083
vn -0.4116 -0.1143 -0.9042
vn 0.9114 -0.0516 -0.4083
s off
f 2/1/1 4/2/1 1/3/1
f 79/4/2 77/5/2 80/6/2
f 5/7/3 2/8/3 1/9/3
f 6/10/4 3/11/4 2/12/4
f 7/13/5 4/14/5 3/15/5
f 8/16/6 1/17/6 4/18/6
f 13/19/3 10/20/3 9/21/3
f 10/22/4 15/23/4 11/24/4
f 15/25/5 12/26/5 11/27/5
f 16/28/6 9/29/6 12/30/6
f 21/31/3 18/32/3 17/33/3
f 22/34/4 19/35/4 18/36/4
f 23/37/5 20/38/5 19/39/5
f 24/40/6 17/41/6 20/42/6
f 29/43/3 26/44/3 25/45/3
f 30/46/4 27/47/4 26/48/4
f 31/49/5 28/50/5 27/51/5
f 32/52/6 25/53/6 28/54/6
f 37/55/3 34/56/3 33/57/3
f 38/58/4 35/59/4 34/60/4
f 39/61/5 36/62/5 35/59/5
f 40/63/6 33/64/6 36/65/6
f 45/66/3 42/67/3 41/68/3
f 46/69/4 43/70/4 42/67/4
f 47/71/5 44/72/5 43/73/5
f 48/74/6 41/75/6 44/76/6
f 53/77/3 50/78/3 49/79/3
f 54/80/4 51/81/4 50/82/4
f 55/83/5 52/84/5 51/85/5
f 56/86/6 49/87/6 52/88/6
f 61/89/3 58/90/3 57/91/3
f 58/92/4 63/93/4 59/94/4
f 63/93/5 60/95/5 59/96/5
f 64/97/6 57/98/6 60/99/6
f 69/100/3 66/101/3 65/102/3
f 66/103/4 71/104/4 67/105/4
f 71/106/5 68/107/5 67/108/5
f 72/109/6 65/110/6 68/111/6
f 77/112/3 74/113/3 73/114/3
f 74/115/4 79/116/4 75/117/4
f 79/116/5 76/118/5 75/119/5
f 76/120/6 77/121/6 73/122/6
f 9/123/2 6/124/2 5/125/2
f 6/124/2 11/126/2 7/127/2
f 11/126/2 8/128/2 7/127/2
f 12/129/2 5/125/2 8/128/2
f 13/130/2 18/131/2 14/132/2
f 14/132/2 19/133/2 15/134/2
f 19/133/2 16/135/2 15/134/2
f 20/136/2 13/130/2 16/135/2
f 25/137/2 22/138/2 21/139/2
f 22/138/2 27/140/2 23/141/2
f 27/140/2 24/142/2 23/141/2
f 28/143/2 21/139/2 24/142/2
f 29/144/2 34/145/2 30/146/2
f 34/145/2 31/147/2 30/146/2
f 35/148/2 32/149/2 31/147/2
f 32/149/2 33/150/2 29/144/2
f 41/151/2 38/152/2 37/153/2
f 42/154/2 39/155/2 38/152/2
f 43/156/2 40/157/2 39/155/2
f 40/157/2 41/151/2 37/153/2
f 49/158/2 46/159/2 45/160/2
f 46/159/2 51/161/2 47/162/2
f 47/162/2 52/163/2 48/164/2
f 52/163/2 45/160/2 48/164/2
f 57/165/2 54/166/2 53/167/2
f 54/166/2 59/168/2 55/169/2
f 59/168/2 56/170/2 55/169/2
f 60/171/2 53/167/2 56/170/2
f 61/172/2 66/173/2 62/174/2
f 66/173/2 63/175/2 62/174/2
f 67/176/2 64/177/2 63/175/2
f 64/177/2 65/178/2 61/172/2
f 69/179/2 74/180/2 70/181/2
f 74/180/2 71/182/2 70/181/2
f 75/183/2 72/184/2 71/182/2
f 76/185/2 69/179/2 72/184/2
f 2/1/1 3/186/1 4/2/1
f 79/4/2 78/187/2 77/5/2
f 5/7/3 6/188/3 2/8/3
f 6/10/4 7/189/4 3/11/4
f 7/13/5 8/190/5 4/14/5
f 8/16/6 5/191/6 1/17/6
f 13/19/3 14/192/3 10/20/3
f 10/22/4 14/193/4 15/23/4
f 15/25/5 16/194/5 12/26/5
f 16/28/6 13/195/6 9/29/6
f 21/31/3 22/196/3 18/32/3
f 22/34/4 23/197/4 19/35/4
f 23/37/5 24/198/5 20/38/5
f 24/40/6 21/199/6 17/41/6
f 29/43/3 30/200/3 26/44/3
f 30/46/4 31/201/4 27/47/4
f 31/49/5 32/202/5 28/50/5
f 32/52/6 29/203/6 25/53/6
f 37/55/3 38/204/3 34/56/3
f 38/58/4 39/205/4 35/59/4
f 39/61/5 40/206/5 36/62/5
f 40/63/6 37/207/6 33/64/6
f 45/66/3 46/208/3 42/67/3
f 46/69/4 47/209/4 43/70/4
f 47/71/5 48/74/5 44/72/5
f 48/74/6 45/210/6 41/75/6
f 53/77/3 54/211/3 50/78/3
f 54/80/4 55/212/4 51/81/4
f 55/83/5 56/213/5 52/84/5
f 56/86/6 53/214/6 49/87/6
f 61/89/3 62/215/3 58/90/3
f 58/92/4 62/216/4 63/93/4
f 63/93/5 64/217/5 60/95/5
f 64/97/6 61/89/6 57/98/6
f 69/100/3 70/218/3 66/101/3
f 66/103/4 70/218/4 71/104/4
f 71/106/5 72/219/5 68/107/5
f 72/109/6 69/220/6 65/110/6
f 77/112/3 78/221/3 74/113/3
f 74/115/4 78/222/4 79/116/4
f 79/116/5 80/223/5 76/118/5
f 76/120/6 80/224/6 77/121/6
f 9/123/2 10/225/2 6/124/2
f 6/124/2 10/225/2 11/126/2
f 11/126/2 12/129/2 8/128/2
f 12/129/2 9/123/2 5/125/2
f 13/130/2 17/226/2 18/131/2
f 14/132/2 18/131/2 19/133/2
f 19/133/2 20/136/2 16/135/2
f 20/136/2 17/226/2 13/130/2
f 25/137/2 26/227/2 22/138/2
f 22/138/2 26/227/2 27/140/2
f 27/140/2 28/143/2 24/142/2
f 28/143/2 25/137/2 21/139/2
f 29/144/2 33/150/2 34/145/2
f 34/145/2 35/148/2 31/147/2
f 35/148/2 36/228/2 32/149/2
f 32/149/2 36/228/2 33/150/2
f 41/151/2 42/154/2 38/152/2
f 42/154/2 43/156/2 39/155/2
f 43/156/2 44/229/2 40/157/2
f 40/157/2 44/229/2 41/151/2
f 49/158/2 50/230/2 46/159/2
f 46/159/2 50/230/2 51/161/2
f 47/162/2 51/161/2 52/163/2
f 52/163/2 49/158/2 45/160/2
f 57/165/2 58/231/2 54/166/2
f 54/166/2 58/231/2 59/168/2
f 59/168/2 60/171/2 56/170/2
f 60/171/2 57/165/2 53/167/2
f 61/172/2 65/178/2 66/173/2
f 66/173/2 67/176/2 63/175/2
f 67/176/2 68/232/2 64/177/2
f 64/177/2 68/232/2 65/178/2
f 69/179/2 73/233/2 74/180/2
f 74/180/2 75/183/2 71/182/2
f 75/183/2 76/185/2 72/184/2
f 76/185/2 73/233/2 69/179/2
