# Blender v2.90.1 OBJ File: ''
# www.blender.org
o Cube_Cube.001
v -2.500000 -2.421612 3.871788
v -3.362744 3.908945 2.809806
v -2.500000 -2.500000 -2.500000
v -2.500000 2.500000 -2.500000
v 2.225642 -3.636624 2.500000
v 3.715012 2.911536 2.500000
v 1.367763 -1.357385 -2.606828
v 1.911017 1.773565 -3.664778
vt 0.375000 0.000000
vt 0.625000 0.250000
vt 0.375000 0.250000
vt 0.375000 0.500000
vt 0.625000 0.750000
vt 0.375000 0.750000
vt 0.375000 1.000000
vt 0.125000 0.500000
vt 0.125000 0.750000
vt 0.875000 0.500000
vt 0.625000 0.500000
vt 0.625000 0.000000
vt 0.625000 1.000000
vt 0.875000 0.750000
vn -1.0000 0.0000 0.0000
vn -0.0276 0.0000 -0.9996
vn 0.9431 -0.2145 -0.2542
vn 0.2640 -0.0600 0.9627
vn -0.2457 -0.9693 0.0119
vn 0.1046 0.9721 -0.2101
vn -0.9810 -0.1536 -0.1186
vn -0.2865 -0.2617 -0.9216
vn 0.9424 -0.2416 -0.2312
vn 0.0675 0.1740 0.9824
vn 0.2450 -0.8694 -0.4292
vn 0.1255 0.9638 -0.2353
s off
f 1/1/1 4/2/1 3/3/1
f 4/2/2 7/4/2 3/3/2
f 7/4/3 6/5/3 5/6/3
f 6/5/4 1/7/4 5/6/4
f 3/8/5 5/6/5 1/9/5
f 4/10/6 6/5/6 8/11/6
f 1/1/7 2/12/7 4/2/7
f 4/2/8 8/11/8 7/4/8
f 7/4/9 8/11/9 6/5/9
f 6/5/10 2/13/10 1/7/10
f 3/8/11 7/4/11 5/6/11
f 4/10/12 2/14/12 6/5/12
